<mxfile host="app.diagrams.net" agent="Mozilla/5.0 (Macintosh; Intel Mac OS X 10.15; rv:139.0) Gecko/20100101 Firefox/139.0" version="28.0.4">
  <diagram name="Page-1" id="G0XkqN8lfNAwOtUpdTNg">
    <mxGraphModel dx="1901" dy="766" grid="1" gridSize="10" guides="1" tooltips="1" connect="1" arrows="1" fold="1" page="1" pageScale="1" pageWidth="850" pageHeight="1100" math="0" shadow="0">
      <root>
        <mxCell id="0" />
        <mxCell id="1" parent="0" />
        <mxCell id="YUb6eltl_Llt_9jeOGUt-2" style="edgeStyle=orthogonalEdgeStyle;rounded=0;orthogonalLoop=1;jettySize=auto;html=1;" edge="1" parent="1" source="YUb6eltl_Llt_9jeOGUt-1" target="YUb6eltl_Llt_9jeOGUt-3">
          <mxGeometry relative="1" as="geometry">
            <mxPoint x="120" y="640" as="targetPoint" />
          </mxGeometry>
        </mxCell>
        <mxCell id="YUb6eltl_Llt_9jeOGUt-5" style="edgeStyle=orthogonalEdgeStyle;rounded=0;orthogonalLoop=1;jettySize=auto;html=1;" edge="1" parent="1" source="YUb6eltl_Llt_9jeOGUt-1" target="YUb6eltl_Llt_9jeOGUt-4">
          <mxGeometry relative="1" as="geometry" />
        </mxCell>
        <mxCell id="YUb6eltl_Llt_9jeOGUt-1" value="Bias &amp;amp; Variance" style="rounded=0;whiteSpace=wrap;html=1;" vertex="1" parent="1">
          <mxGeometry x="200" y="480" width="80" height="40" as="geometry" />
        </mxCell>
        <mxCell id="YUb6eltl_Llt_9jeOGUt-3" value="&lt;div&gt;UnderFitting&lt;/div&gt;HB - LV" style="rounded=0;whiteSpace=wrap;html=1;" vertex="1" parent="1">
          <mxGeometry x="40" y="640" width="120" height="40" as="geometry" />
        </mxCell>
        <mxCell id="YUb6eltl_Llt_9jeOGUt-7" value="" style="edgeStyle=orthogonalEdgeStyle;rounded=0;orthogonalLoop=1;jettySize=auto;html=1;" edge="1" parent="1" source="YUb6eltl_Llt_9jeOGUt-4" target="YUb6eltl_Llt_9jeOGUt-6">
          <mxGeometry relative="1" as="geometry" />
        </mxCell>
        <mxCell id="YUb6eltl_Llt_9jeOGUt-8" value="Solution" style="edgeLabel;html=1;align=center;verticalAlign=middle;resizable=0;points=[];" vertex="1" connectable="0" parent="YUb6eltl_Llt_9jeOGUt-7">
          <mxGeometry x="-0.0892" y="1" relative="1" as="geometry">
            <mxPoint as="offset" />
          </mxGeometry>
        </mxCell>
        <mxCell id="YUb6eltl_Llt_9jeOGUt-4" value="OverFitting&lt;br&gt;LB - HV" style="rounded=0;whiteSpace=wrap;html=1;" vertex="1" parent="1">
          <mxGeometry x="320" y="640" width="120" height="40" as="geometry" />
        </mxCell>
        <mxCell id="YUb6eltl_Llt_9jeOGUt-10" value="" style="edgeStyle=orthogonalEdgeStyle;rounded=0;orthogonalLoop=1;jettySize=auto;html=1;" edge="1" parent="1" source="YUb6eltl_Llt_9jeOGUt-6" target="YUb6eltl_Llt_9jeOGUt-9">
          <mxGeometry relative="1" as="geometry" />
        </mxCell>
        <mxCell id="YUb6eltl_Llt_9jeOGUt-12" value="" style="edgeStyle=orthogonalEdgeStyle;rounded=0;orthogonalLoop=1;jettySize=auto;html=1;" edge="1" parent="1" source="YUb6eltl_Llt_9jeOGUt-6" target="YUb6eltl_Llt_9jeOGUt-11">
          <mxGeometry relative="1" as="geometry" />
        </mxCell>
        <mxCell id="YUb6eltl_Llt_9jeOGUt-14" value="" style="edgeStyle=orthogonalEdgeStyle;rounded=0;orthogonalLoop=1;jettySize=auto;html=1;" edge="1" parent="1" source="YUb6eltl_Llt_9jeOGUt-6" target="YUb6eltl_Llt_9jeOGUt-13">
          <mxGeometry relative="1" as="geometry" />
        </mxCell>
        <mxCell id="YUb6eltl_Llt_9jeOGUt-6" value="&lt;div&gt;Regularization&lt;/div&gt;" style="whiteSpace=wrap;html=1;rounded=0;" vertex="1" parent="1">
          <mxGeometry x="320" y="800" width="120" height="40" as="geometry" />
        </mxCell>
        <mxCell id="YUb6eltl_Llt_9jeOGUt-9" value="&lt;div&gt;Ridge Regularization&lt;/div&gt;(L2)" style="whiteSpace=wrap;html=1;rounded=0;" vertex="1" parent="1">
          <mxGeometry x="120" y="920" width="120" height="40" as="geometry" />
        </mxCell>
        <mxCell id="YUb6eltl_Llt_9jeOGUt-11" value="&lt;div&gt;LASSO ( L1)&lt;/div&gt;" style="whiteSpace=wrap;html=1;rounded=0;" vertex="1" parent="1">
          <mxGeometry x="320" y="920" width="120" height="40" as="geometry" />
        </mxCell>
        <mxCell id="YUb6eltl_Llt_9jeOGUt-13" value="&lt;div&gt;Elastic Net&lt;/div&gt;" style="whiteSpace=wrap;html=1;rounded=0;" vertex="1" parent="1">
          <mxGeometry x="520" y="920" width="120" height="40" as="geometry" />
        </mxCell>
      </root>
    </mxGraphModel>
  </diagram>
</mxfile>
